<?xml version="1.0" standalone="no"?>
<!DOCTYPE svg PUBLIC "-//W3C//DTD SVG 20010904//EN"
 "http://www.w3.org/TR/2001/REC-SVG-20010904/DTD/svg10.dtd">
<svg version="1.0" xmlns="http://www.w3.org/2000/svg"
 width="300.000000pt" height="300.000000pt" viewBox="0 0 300.000000 300.000000"
 preserveAspectRatio="xMidYMid meet">

<g transform="translate(0.000000,300.000000) scale(0.100000,-0.100000)"
fill="#000000" stroke="none">
<path d="M755 2593 c-128 -29 -249 -118 -303 -222 -45 -86 -57 -142 -56 -261
1 -158 33 -259 131 -408 29 -43 333 -415 363 -442 26 -25 116 -156 141 -205
64 -130 62 -294 -5 -361 -71 -71 -214 -71 -281 1 -49 52 -67 121 -73 278 l-4
137 -128 0 -128 0 -11 -66 c-21 -118 -24 -190 -12 -275 28 -190 132 -306 318
-354 76 -20 261 -20 338 0 129 33 240 116 298 223 57 105 73 278 38 414 -40
156 -118 277 -382 593 -105 127 -209 257 -230 289 -89 135 -94 301 -11 373 59
51 176 55 238 8 66 -50 103 -173 104 -342 l0 -83 124 0 124 0 12 48 c21 85 24
280 6 350 -38 148 -149 255 -309 298 -49 13 -254 18 -302 7z"/>
<path d="M1934 2581 c-201 -57 -324 -237 -324 -471 0 -101 19 -185 60 -277 46
-102 87 -157 318 -433 266 -318 295 -368 300 -524 3 -90 1 -106 -20 -145 -31
-60 -81 -86 -168 -86 -148 0 -201 84 -215 338 l-7 127 -123 0 -123 0 -12 -53
c-18 -78 -24 -254 -11 -317 35 -171 158 -293 329 -329 78 -16 257 -14 327 4
159 42 261 134 322 294 22 56 26 83 27 176 1 131 -17 205 -75 320 -55 107
-108 179 -339 460 -228 277 -245 301 -266 373 -23 77 -16 201 12 239 36 48 81
68 154 68 90 0 129 -25 170 -109 32 -65 32 -65 43 -301 l2 -40 127 -3 126 -3
16 88 c59 323 -51 540 -309 609 -73 20 -265 17 -341 -5z"/>
</g>
</svg>
