<?xml version="1.0" standalone="no"?>
<!DOCTYPE svg PUBLIC "-//W3C//DTD SVG 20010904//EN"
 "http://www.w3.org/TR/2001/REC-SVG-20010904/DTD/svg10.dtd">
<svg version="1.0" xmlns="http://www.w3.org/2000/svg"
 width="700.000000pt" height="700.000000pt" viewBox="0 0 700.000000 700.000000"
 preserveAspectRatio="xMidYMid meet">
<metadata>
Created by potrace 1.14, written by Peter Selinger 2001-2017
</metadata>
<g transform="translate(0.000000,700.000000) scale(0.100000,-0.100000)"
fill="#000000" stroke="none">
<path d="M1927 6064 c-1 -2 -34 -4 -73 -5 -199 -6 -473 -143 -648 -323 -148
-154 -253 -380 -273 -591 -19 -189 -3 -466 34 -610 8 -33 16 -68 18 -77 13
-64 101 -252 177 -378 54 -90 61 -101 76 -119 7 -9 77 -97 155 -196 78 -99
144 -182 147 -185 3 -3 44 -52 90 -110 115 -143 373 -451 436 -520 72 -79 284
-374 284 -396 0 -4 6 -15 14 -23 41 -48 102 -203 128 -326 24 -114 26 -284 4
-379 -50 -215 -202 -329 -437 -328 -255 1 -417 161 -464 457 -18 115 -33 360
-35 583 l0 52 -300 0 c-165 0 -300 -3 -300 -6 0 -3 -11 -74 -25 -157 -41 -251
-43 -276 -39 -432 3 -145 5 -169 19 -245 4 -19 9 -46 12 -60 2 -14 17 -65 34
-113 110 -331 365 -542 750 -622 131 -27 564 -24 691 4 334 76 631 305 759
586 85 188 124 494 93 730 -15 113 -25 168 -31 177 -2 5 -6 16 -8 26 -8 43
-65 202 -96 267 -42 89 -116 215 -193 330 -53 80 -270 372 -285 385 -3 3 -33
39 -66 80 -54 68 -227 279 -278 340 -12 14 -52 63 -90 110 -38 47 -83 103
-102 125 -116 140 -264 332 -309 400 -59 90 -115 216 -142 320 -27 107 -25
280 4 371 54 166 187 262 372 269 279 11 430 -135 499 -482 26 -133 33 -210
37 -398 1 -88 3 -166 3 -172 1 -10 66 -13 290 -13 l289 0 17 76 c36 163 48
296 48 535 -1 178 -12 276 -45 379 -93 292 -340 525 -655 620 -75 22 -106 27
-238 36 -98 6 -344 12 -348 8z"/>
<path d="M4868 6065 c-2 -1 -54 -5 -115 -9 -171 -9 -277 -35 -413 -102 -370
-180 -581 -556 -582 -1034 -1 -248 54 -472 173 -713 88 -178 211 -343 606
-818 177 -214 399 -484 466 -569 163 -206 267 -383 302 -515 24 -91 30 -154
30 -340 l0 -170 -34 -69 c-63 -131 -157 -196 -312 -214 -112 -14 -205 -4 -294
29 -72 27 -147 99 -187 180 -43 86 -81 244 -94 389 -3 30 -7 73 -9 95 -2 22
-7 94 -11 160 -6 104 -9 162 -13 213 -1 10 -62 12 -288 10 l-287 -3 -23 -105
c-12 -58 -25 -143 -28 -190 -4 -47 -8 -98 -11 -115 -5 -40 -5 -331 1 -375 12
-87 22 -139 39 -185 93 -257 233 -429 452 -551 61 -34 198 -87 259 -99 117
-24 403 -36 575 -26 332 21 614 164 794 400 68 90 138 217 161 291 4 14 11 30
16 35 4 6 18 49 30 95 21 76 23 108 23 310 1 244 -6 300 -56 465 -32 106 -112
284 -174 388 -38 63 -122 194 -136 212 -5 6 -45 60 -91 120 -45 61 -147 191
-227 290 -79 99 -149 186 -155 193 -5 7 -17 21 -26 30 -12 13 -323 393 -386
472 -248 310 -299 391 -339 545 -25 99 -26 355 0 440 29 96 87 162 186 208 62
30 71 31 200 31 80 1 151 -4 175 -11 99 -30 165 -102 240 -258 56 -117 67
-176 80 -450 11 -226 16 -319 18 -321 1 -2 126 -5 277 -9 151 -4 278 -8 281
-11 11 -6 39 25 40 44 0 9 2 24 4 32 4 21 14 74 20 113 3 17 8 45 11 60 7 33
10 57 20 152 62 616 -184 1051 -684 1209 -92 29 -108 32 -196 41 -63 7 -303
14 -308 10z"/>
</g>
</svg>
